<?xml version="1.0" standalone="no"?>
<!DOCTYPE svg PUBLIC "-//W3C//DTD SVG 20010904//EN"
 "http://www.w3.org/TR/2001/REC-SVG-20010904/DTD/svg10.dtd">
<svg version="1.0" xmlns="http://www.w3.org/2000/svg"
 width="600.000000pt" height="600.000000pt" viewBox="0 0 600.000000 600.000000"
 preserveAspectRatio="xMidYMid meet">
<metadata>
Created by potrace 1.11, written by Peter Selinger 2001-2013
</metadata>
<g transform="translate(0.000000,600.000000) scale(0.100000,-0.100000)"
fill="#000000" stroke="none">
<path d="M699 5996 c-2 -2 -22 -7 -44 -10 -38 -6 -92 -20 -125 -33 -8 -4 -17
-7 -20 -7 -3 -1 -30 -13 -62 -28 -144 -67 -287 -208 -357 -353 -44 -92 -48
-99 -68 -170 -17 -56 -18 -197 -20 -2365 -1 -1514 1 -2324 8 -2360 48 -263
205 -473 439 -587 176 -86 -71 -78 2550 -78 2241 0 2328 1 2395 19 39 10 76
23 83 28 6 6 12 8 12 5 0 -3 35 12 77 34 204 106 348 287 409 514 18 68 19
148 19 2380 0 1271 -3 2331 -8 2356 -13 80 -81 259 -106 279 -3 3 -18 23 -33
45 -100 152 -276 267 -493 322 -30 8 -4648 17 -4656 9z m491 -966 c3 -3 23
-19 45 -36 49 -36 54 -40 140 -109 81 -64 80 -64 165 -130 36 -27 70 -54 76
-60 7 -5 55 -43 108 -84 53 -41 96 -77 96 -81 0 -3 -93 -43 -207 -88 -115 -46
-219 -88 -233 -94 -14 -6 -27 -12 -30 -13 -12 -4 -46 -17 -65 -26 -11 -4 -56
-22 -100 -39 -44 -17 -91 -36 -105 -42 -101 -44 -98 -46 -84 41 7 42 15 101
19 131 3 30 8 62 10 70 2 8 7 38 10 66 3 28 8 61 10 74 2 13 7 46 10 74 3 28
8 58 10 66 2 8 6 33 9 55 6 51 16 124 21 150 2 11 6 46 10 78 l8 57 36 -27
c20 -15 38 -30 41 -33z m2610 23 c0 -5 -23 -69 -51 -143 -74 -195 -173 -458
-221 -584 l-42 -109 -24 29 c-13 16 -34 40 -46 54 -11 14 -50 61 -86 105 -35
44 -67 82 -70 85 -3 3 -61 73 -129 155 -68 83 -140 170 -160 194 -51 62 -54
69 -34 75 10 3 74 14 143 26 171 28 182 29 208 36 13 2 42 7 65 11 23 3 120
20 217 37 196 35 230 40 230 29z m1110 -273 c40 -69 82 -143 94 -165 13 -22
51 -89 86 -150 35 -60 73 -128 85 -150 12 -22 41 -72 64 -111 22 -39 41 -73
41 -76 0 -3 -200 -5 -445 -5 -245 0 -445 3 -445 6 0 3 16 32 35 64 19 32 35
60 35 62 0 2 27 50 60 107 80 137 74 125 202 350 62 108 113 196 114 195 1 -1
35 -58 74 -127z m-2296 -763 c11 -17 30 -51 43 -75 13 -24 37 -69 55 -100 17
-31 44 -82 61 -112 17 -30 38 -68 47 -85 9 -16 32 -57 50 -90 18 -33 52 -94
75 -135 23 -41 51 -93 63 -115 l20 -40 -106 2 c-183 4 -603 12 -700 12 -72 1
-93 4 -90 14 5 20 450 757 457 757 3 0 15 -15 25 -33z m2167 -858 c217 -72
397 -135 402 -139 7 -6 -63 -76 -219 -220 -121 -111 -289 -267 -348 -322 -34
-32 -64 -58 -67 -58 -4 0 -9 15 -12 33 -7 36 -82 390 -97 452 -14 62 -50 227
-56 260 -3 17 -9 48 -14 70 -13 56 -12 68 4 62 8 -3 191 -65 407 -138z m-3361
-146 c69 -120 130 -227 136 -238 6 -11 48 -85 94 -165 45 -80 84 -148 86 -151
2 -4 -197 -7 -441 -7 -282 0 -445 3 -445 10 0 12 433 768 440 768 3 0 62 -98
130 -217z m1824 -794 l399 -183 -29 -23 c-16 -13 -157 -114 -314 -226 -157
-112 -309 -220 -337 -241 -52 -37 -53 -37 -54 -14 0 12 -2 32 -3 43 -2 11 -6
57 -10 102 -4 46 -9 91 -11 102 -2 10 -6 54 -10 97 -4 43 -8 89 -10 101 -2 12
-6 57 -10 100 -3 43 -8 89 -10 103 -4 24 -10 77 -20 183 -3 36 -1 48 8 44 7
-3 192 -87 411 -188z m1340 -559 c13 -36 45 -121 70 -190 69 -191 175 -481
191 -521 l14 -36 -107 19 c-59 10 -121 20 -138 22 -16 3 -109 18 -205 35 -179
31 -209 36 -269 45 -19 3 -48 8 -65 12 -16 3 -47 9 -68 12 l-38 7 28 34 c15
19 44 53 63 76 19 23 51 61 71 86 20 24 52 62 70 85 19 22 50 60 69 84 63 78
191 234 233 284 36 42 42 46 49 30 4 -11 18 -48 32 -84z m-2894 -37 c0 -5 17
-27 38 -49 49 -56 61 -69 247 -283 88 -101 188 -216 222 -255 35 -39 63 -73
63 -76 0 -3 -188 -43 -417 -89 -230 -45 -428 -85 -440 -88 -19 -4 -9 34 120
421 87 259 147 426 154 426 7 0 13 -3 13 -7z"/>
</g>
</svg>
