<svg width="50" height="50" viewBox="0 0 50 50" fill="none" xmlns="http://www.w3.org/2000/svg">
<path fill-rule="evenodd" clip-rule="evenodd" d="M40 2H10C5.58172 2 2 5.58172 2 10V40C2 44.4183 5.58172 48 10 48H40C44.4183 48 48 44.4183 48 40V10C48 5.58172 44.4183 2 40 2ZM10 0C4.47715 0 0 4.47715 0 10V40C0 45.5228 4.47715 50 10 50H40C45.5228 50 50 45.5228 50 40V10C50 4.47715 45.5228 0 40 0H10Z" fill="white"/>
<path fill-rule="evenodd" clip-rule="evenodd" d="M5 35C5 33.3431 6.34315 32 8 32H42C43.6569 32 45 33.3431 45 35V41C45 42.6569 43.6569 44 42 44H8C6.34315 44 5 42.6569 5 41V35ZM28 34.7H32.428V36.554L30.151 39.884C30.031 40.064 29.935 40.22 29.863 40.352C29.797 40.478 29.764 40.622 29.764 40.784V41H28.486V40.73C28.486 40.61 28.495 40.502 28.513 40.406C28.531 40.31 28.558 40.214 28.594 40.118C28.636 40.022 28.69 39.92 28.756 39.812C28.822 39.704 28.903 39.578 28.999 39.434L31.348 35.996V35.834H28V34.7ZM10.3834 35.294V39.866H8.60141V41H13.1374V39.866H11.5714V34.7H9.24941L8.49341 37.346V37.454H9.62741L10.2214 35.294H10.3834ZM38.7605 39.218C38.7605 39.428 38.8355 39.611 38.9855 39.767C39.1415 39.917 39.3815 39.992 39.7055 39.992C40.0295 39.992 40.2845 39.899 40.4705 39.713C40.6625 39.521 40.7585 39.272 40.7585 38.966V38.156H40.5965C40.5125 38.366 40.3745 38.537 40.1825 38.669C39.9905 38.795 39.7175 38.858 39.3635 38.858C39.0935 38.858 38.8415 38.81 38.6075 38.714C38.3795 38.612 38.1785 38.471 38.0045 38.291C37.8365 38.111 37.7045 37.895 37.6085 37.643C37.5125 37.391 37.4645 37.112 37.4645 36.806V36.698C37.4645 36.398 37.5185 36.119 37.6265 35.861C37.7345 35.597 37.8845 35.372 38.0765 35.186C38.2745 34.994 38.5115 34.844 38.7875 34.736C39.0695 34.628 39.3815 34.574 39.7235 34.574C40.0355 34.574 40.3265 34.625 40.5965 34.727C40.8725 34.829 41.1095 34.973 41.3075 35.159C41.5055 35.339 41.6615 35.558 41.7755 35.816C41.8895 36.068 41.9465 36.347 41.9465 36.653V38.948C41.9465 39.29 41.8895 39.596 41.7755 39.866C41.6615 40.136 41.5055 40.364 41.3075 40.55C41.1095 40.736 40.8755 40.88 40.6055 40.982C40.3415 41.078 40.0535 41.126 39.7415 41.126C39.4355 41.126 39.1505 41.084 38.8865 41C38.6225 40.91 38.3915 40.784 38.1935 40.622C38.0015 40.454 37.8485 40.253 37.7345 40.019C37.6265 39.785 37.5725 39.518 37.5725 39.218H38.7605ZM38.9495 35.987C39.1475 35.801 39.3995 35.708 39.7055 35.708C40.0115 35.708 40.2635 35.801 40.4615 35.987C40.6595 36.167 40.7585 36.41 40.7585 36.716C40.7585 37.022 40.6595 37.268 40.4615 37.454C40.2635 37.634 40.0115 37.724 39.7055 37.724C39.3995 37.724 39.1475 37.634 38.9495 37.454C38.7515 37.268 38.6525 37.022 38.6525 36.716C38.6525 36.41 38.7515 36.167 38.9495 35.987ZM22.659 41V39.866H19.419V39.758C19.419 39.632 19.437 39.521 19.473 39.425C19.515 39.323 19.587 39.23 19.689 39.146C19.791 39.062 19.932 38.987 20.112 38.921C20.298 38.849 20.532 38.78 20.814 38.714C21.486 38.558 21.969 38.306 22.263 37.958C22.563 37.61 22.713 37.172 22.713 36.644V36.536C22.713 36.284 22.665 36.041 22.569 35.807C22.479 35.567 22.338 35.357 22.146 35.177C21.96 34.997 21.726 34.853 21.444 34.745C21.162 34.631 20.832 34.574 20.454 34.574C20.1 34.574 19.782 34.634 19.5 34.754C19.218 34.868 18.978 35.027 18.78 35.231C18.588 35.429 18.438 35.663 18.33 35.933C18.228 36.197 18.177 36.476 18.177 36.77V37.274H19.365V36.878C19.365 36.512 19.467 36.227 19.671 36.023C19.875 35.813 20.148 35.708 20.49 35.708C20.814 35.708 21.066 35.792 21.246 35.96C21.432 36.128 21.525 36.338 21.525 36.59C21.525 36.722 21.507 36.842 21.471 36.95C21.441 37.052 21.381 37.148 21.291 37.238C21.201 37.322 21.078 37.4 20.922 37.472C20.772 37.538 20.577 37.598 20.337 37.652C20.013 37.724 19.722 37.814 19.464 37.922C19.206 38.024 18.984 38.156 18.798 38.318C18.618 38.48 18.477 38.678 18.375 38.912C18.279 39.146 18.231 39.428 18.231 39.758V41H22.659Z" fill="white"/>
<path fill-rule="evenodd" clip-rule="evenodd" d="M14 20C14 18.3431 12.6569 17 11 17H8C6.34315 17 5 18.3431 5 20V26C5 27.6569 6.34315 29 8 29H11C12.6569 29 14 27.6569 14 26V20ZM9.246 20.294V24.866H7.464V26H12V24.866H10.434V19.7H8.112L7.356 22.346V22.454H8.49L9.084 20.294H9.246Z" fill="white"/>
<path fill-rule="evenodd" clip-rule="evenodd" d="M35 20C35 18.3431 33.6569 17 32 17H29C27.3431 17 26 18.3431 26 20V26C26 27.6569 27.3431 29 29 29H32C33.6569 29 35 27.6569 35 26V20ZM30.021 24.851C29.871 24.695 29.796 24.512 29.796 24.302H28.608C28.608 24.602 28.662 24.869 28.77 25.103C28.884 25.337 29.037 25.538 29.229 25.706C29.427 25.868 29.658 25.994 29.922 26.084C30.186 26.168 30.471 26.21 30.777 26.21C31.089 26.21 31.377 26.162 31.641 26.066C31.911 25.964 32.145 25.82 32.343 25.634C32.541 25.448 32.697 25.22 32.811 24.95C32.925 24.68 32.982 24.374 32.982 24.032V21.737C32.982 21.431 32.925 21.152 32.811 20.9C32.697 20.642 32.541 20.423 32.343 20.243C32.145 20.057 31.908 19.913 31.632 19.811C31.362 19.709 31.071 19.658 30.759 19.658C30.417 19.658 30.105 19.712 29.823 19.82C29.547 19.928 29.31 20.078 29.112 20.27C28.92 20.456 28.77 20.681 28.662 20.945C28.554 21.203 28.5 21.482 28.5 21.782V21.89C28.5 22.196 28.548 22.475 28.644 22.727C28.74 22.979 28.872 23.195 29.04 23.375C29.214 23.555 29.415 23.696 29.643 23.798C29.877 23.894 30.129 23.942 30.399 23.942C30.753 23.942 31.026 23.879 31.218 23.753C31.41 23.621 31.548 23.45 31.632 23.24H31.794V24.05C31.794 24.356 31.698 24.605 31.506 24.797C31.32 24.983 31.065 25.076 30.741 25.076C30.417 25.076 30.177 25.001 30.021 24.851ZM30.741 20.792C30.435 20.792 30.183 20.885 29.985 21.071C29.787 21.251 29.688 21.494 29.688 21.8C29.688 22.106 29.787 22.352 29.985 22.538C30.183 22.718 30.435 22.808 30.741 22.808C31.047 22.808 31.299 22.718 31.497 22.538C31.695 22.352 31.794 22.106 31.794 21.8C31.794 21.494 31.695 21.251 31.497 21.071C31.299 20.885 31.047 20.792 30.741 20.792Z" fill="white"/>
<path fill-rule="evenodd" clip-rule="evenodd" d="M45.5 20C45.5 18.3431 44.1569 17 42.5 17H39.5C37.8431 17 36.5 18.3431 36.5 20V26C36.5 27.6569 37.8431 29 39.5 29H42.5C44.1569 29 45.5 27.6569 45.5 26V20ZM43.446 26.084V24.95H40.206V24.842C40.206 24.716 40.224 24.605 40.26 24.509C40.302 24.407 40.374 24.314 40.476 24.23C40.578 24.146 40.719 24.071 40.899 24.005C41.085 23.933 41.319 23.864 41.601 23.798C42.273 23.642 42.756 23.39 43.05 23.042C43.35 22.694 43.5 22.256 43.5 21.728V21.62C43.5 21.368 43.452 21.125 43.356 20.891C43.266 20.651 43.125 20.441 42.933 20.261C42.747 20.081 42.513 19.937 42.231 19.829C41.949 19.715 41.619 19.658 41.241 19.658C40.887 19.658 40.569 19.718 40.287 19.838C40.005 19.952 39.765 20.111 39.567 20.315C39.375 20.513 39.225 20.747 39.117 21.017C39.015 21.281 38.964 21.56 38.964 21.854V22.358H40.152V21.962C40.152 21.596 40.254 21.311 40.458 21.107C40.662 20.897 40.935 20.792 41.277 20.792C41.601 20.792 41.853 20.876 42.033 21.044C42.219 21.212 42.312 21.422 42.312 21.674C42.312 21.806 42.294 21.926 42.258 22.034C42.228 22.136 42.168 22.232 42.078 22.322C41.988 22.406 41.865 22.484 41.709 22.556C41.559 22.622 41.364 22.682 41.124 22.736C40.8 22.808 40.509 22.898 40.251 23.006C39.993 23.108 39.771 23.24 39.585 23.402C39.405 23.564 39.264 23.762 39.162 23.996C39.066 24.23 39.018 24.512 39.018 24.842V26.084H43.446Z" fill="white"/>
<path fill-rule="evenodd" clip-rule="evenodd" d="M24.5 20C24.5 18.3431 23.1569 17 21.5 17H18.5C16.8431 17 15.5 18.3431 15.5 20V26C15.5 27.6569 16.8431 29 18.5 29H21.5C23.1569 29 24.5 27.6569 24.5 26V20ZM22.428 19.856H18V20.99H21.348V21.152L18.999 24.59C18.903 24.734 18.822 24.86 18.756 24.968C18.69 25.076 18.636 25.178 18.594 25.274C18.558 25.37 18.531 25.466 18.513 25.562C18.495 25.658 18.486 25.766 18.486 25.886V26.156H19.764V25.94C19.764 25.778 19.797 25.634 19.863 25.508C19.935 25.376 20.031 25.22 20.151 25.04L22.428 21.71V19.856Z" fill="white"/>
<path d="M9.39839 12.292V7.72H9.23639L8.64239 9.88H7.50839V9.772L8.26439 7.126H10.5864V12.292H12.1524V13.426H7.61639V12.292H9.39839Z" fill="white"/>
<path d="M42.982 12.292V13.426H38.554V12.184C38.554 11.854 38.602 11.572 38.698 11.338C38.8 11.104 38.941 10.906 39.121 10.744C39.307 10.582 39.529 10.45 39.787 10.348C40.045 10.24 40.336 10.15 40.66 10.078C40.9 10.024 41.095 9.964 41.245 9.898C41.401 9.826 41.524 9.748 41.614 9.664C41.704 9.574 41.764 9.478 41.794 9.376C41.83 9.268 41.848 9.148 41.848 9.016C41.848 8.764 41.755 8.554 41.569 8.386C41.389 8.218 41.137 8.134 40.813 8.134C40.471 8.134 40.198 8.239 39.994 8.449C39.79 8.653 39.688 8.938 39.688 9.304V9.7H38.5V9.196C38.5 8.902 38.551 8.623 38.653 8.359C38.761 8.089 38.911 7.855 39.103 7.657C39.301 7.453 39.541 7.294 39.823 7.18C40.105 7.06 40.423 7 40.777 7C41.155 7 41.485 7.057 41.767 7.171C42.049 7.279 42.283 7.423 42.469 7.603C42.661 7.783 42.802 7.993 42.892 8.233C42.988 8.467 43.036 8.71 43.036 8.962V9.07C43.036 9.598 42.886 10.036 42.586 10.384C42.292 10.732 41.809 10.984 41.137 11.14C40.855 11.206 40.621 11.275 40.435 11.347C40.255 11.413 40.114 11.488 40.012 11.572C39.91 11.656 39.838 11.749 39.796 11.851C39.76 11.947 39.742 12.058 39.742 12.184V12.292H42.982Z" fill="white"/>
<path d="M18.072 7.126H22.5V8.98L20.223 12.31C20.103 12.49 20.007 12.646 19.935 12.778C19.869 12.904 19.836 13.048 19.836 13.21V13.426H18.558V13.156C18.558 13.036 18.567 12.928 18.585 12.832C18.603 12.736 18.63 12.64 18.666 12.544C18.708 12.448 18.762 12.346 18.828 12.238C18.894 12.13 18.975 12.004 19.071 11.86L21.42 8.422V8.26H18.072V7.126Z" fill="white"/>
<path d="M29.314 11.644C29.314 11.854 29.389 12.037 29.539 12.193C29.695 12.343 29.935 12.418 30.259 12.418C30.583 12.418 30.838 12.325 31.024 12.139C31.216 11.947 31.312 11.698 31.312 11.392V10.582H31.15C31.066 10.792 30.928 10.963 30.736 11.095C30.544 11.221 30.271 11.284 29.917 11.284C29.647 11.284 29.395 11.236 29.161 11.14C28.933 11.038 28.732 10.897 28.558 10.717C28.39 10.537 28.258 10.321 28.162 10.069C28.066 9.817 28.018 9.538 28.018 9.232V9.124C28.018 8.824 28.072 8.545 28.18 8.287C28.288 8.023 28.438 7.798 28.63 7.612C28.828 7.42 29.065 7.27 29.341 7.162C29.623 7.054 29.935 7 30.277 7C30.589 7 30.88 7.051 31.15 7.153C31.426 7.255 31.663 7.399 31.861 7.585C32.059 7.765 32.215 7.984 32.329 8.242C32.443 8.494 32.5 8.773 32.5 9.079V11.374C32.5 11.716 32.443 12.022 32.329 12.292C32.215 12.562 32.059 12.79 31.861 12.976C31.663 13.162 31.429 13.306 31.159 13.408C30.895 13.504 30.607 13.552 30.295 13.552C29.989 13.552 29.704 13.51 29.44 13.426C29.176 13.336 28.945 13.21 28.747 13.048C28.555 12.88 28.402 12.679 28.288 12.445C28.18 12.211 28.126 11.944 28.126 11.644H29.314ZM30.259 8.134C29.953 8.134 29.701 8.227 29.503 8.413C29.305 8.593 29.206 8.836 29.206 9.142C29.206 9.448 29.305 9.694 29.503 9.88C29.701 10.06 29.953 10.15 30.259 10.15C30.565 10.15 30.817 10.06 31.015 9.88C31.213 9.694 31.312 9.448 31.312 9.142C31.312 8.836 31.213 8.593 31.015 8.413C30.817 8.227 30.565 8.134 30.259 8.134Z" fill="white"/>
</svg>
