<svg width="50" height="50" viewBox="0 0 50 50" fill="none" xmlns="http://www.w3.org/2000/svg">
<path fill-rule="evenodd" clip-rule="evenodd" d="M40 2H10C5.58172 2 2 5.58172 2 10V40C2 44.4183 5.58172 48 10 48H40C44.4183 48 48 44.4183 48 40V10C48 5.58172 44.4183 2 40 2ZM10 0C4.47715 0 0 4.47715 0 10V40C0 45.5228 4.47715 50 10 50H40C45.5228 50 50 45.5228 50 40V10C50 4.47715 45.5228 0 40 0H10Z" fill="white"/>
<path fill-rule="evenodd" clip-rule="evenodd" d="M5 9C5 7.34315 6.34315 6 8 6H42C43.6569 6 45 7.34315 45 9V15C45 16.6569 43.6569 18 42 18H8C6.34315 18 5 16.6569 5 15V9ZM18.0389 8.69997H22.4669V10.554L20.1899 13.884C20.0699 14.064 19.9739 14.22 19.9019 14.352C19.8359 14.478 19.8029 14.622 19.8029 14.784V15H18.5249V14.73C18.5249 14.61 18.5339 14.502 18.5519 14.406C18.5699 14.31 18.5969 14.214 18.6329 14.118C18.6749 14.022 18.7289 13.92 18.7949 13.812C18.8609 13.704 18.9419 13.578 19.0379 13.434L21.3869 9.99597V9.83398H18.0389V8.69997ZM10.3834 9.29397V13.866H8.60141V15H13.1374V13.866H11.5714V8.69997H9.24941L8.49341 11.346V11.454H9.62741L10.2214 9.29397H10.3834ZM28.7994 13.218C28.7994 13.428 28.8744 13.611 29.0244 13.767C29.1804 13.917 29.4204 13.992 29.7444 13.992C30.0684 13.992 30.3234 13.899 30.5094 13.713C30.7014 13.521 30.7974 13.272 30.7974 12.966V12.156H30.6354C30.5514 12.366 30.4134 12.537 30.2214 12.669C30.0294 12.795 29.7564 12.858 29.4024 12.858C29.1324 12.858 28.8804 12.81 28.6464 12.714C28.4184 12.612 28.2174 12.471 28.0434 12.291C27.8754 12.111 27.7434 11.895 27.6474 11.643C27.5514 11.391 27.5034 11.112 27.5034 10.806V10.698C27.5034 10.398 27.5574 10.119 27.6654 9.86097C27.7734 9.59697 27.9234 9.37197 28.1154 9.18597C28.3134 8.99397 28.5504 8.84397 28.8264 8.73597C29.1084 8.62797 29.4204 8.57397 29.7624 8.57397C30.0744 8.57397 30.3654 8.62497 30.6354 8.72697C30.9114 8.82897 31.1484 8.97297 31.3464 9.15897C31.5444 9.33897 31.7004 9.55797 31.8144 9.81597C31.9284 10.068 31.9854 10.347 31.9854 10.653V12.948C31.9854 13.29 31.9284 13.596 31.8144 13.866C31.7004 14.136 31.5444 14.364 31.3464 14.55C31.1484 14.736 30.9144 14.88 30.6444 14.982C30.3804 15.078 30.0924 15.126 29.7804 15.126C29.4744 15.126 29.1894 15.084 28.9254 15C28.6614 14.91 28.4304 14.784 28.2324 14.622C28.0404 14.454 27.8874 14.253 27.7734 14.019C27.6654 13.785 27.6114 13.518 27.6114 13.218H28.7994ZM28.9884 9.98697C29.1864 9.80097 29.4384 9.70797 29.7444 9.70797C30.0504 9.70797 30.3024 9.80097 30.5004 9.98697C30.6984 10.167 30.7974 10.41 30.7974 10.716C30.7974 11.022 30.6984 11.268 30.5004 11.454C30.3024 11.634 30.0504 11.724 29.7444 11.724C29.4384 11.724 29.1864 11.634 28.9884 11.454C28.7904 11.268 28.6914 11.022 28.6914 10.716C28.6914 10.41 28.7904 10.167 28.9884 9.98697ZM41.4949 15V13.866H38.2549V13.758C38.2549 13.632 38.2729 13.521 38.3089 13.425C38.3509 13.323 38.4229 13.23 38.5249 13.146C38.6269 13.062 38.7679 12.987 38.9479 12.921C39.1339 12.849 39.3679 12.78 39.6499 12.714C40.3219 12.558 40.8049 12.306 41.0989 11.958C41.3989 11.61 41.5489 11.172 41.5489 10.644V10.536C41.5489 10.284 41.5009 10.041 41.4049 9.80697C41.3149 9.56697 41.1739 9.35697 40.9819 9.17697C40.7959 8.99697 40.5619 8.85297 40.2799 8.74497C39.9979 8.63097 39.6679 8.57397 39.2899 8.57397C38.9359 8.57397 38.6179 8.63397 38.3359 8.75397C38.0539 8.86797 37.8139 9.02697 37.6159 9.23097C37.4239 9.42897 37.2739 9.66297 37.1659 9.93297C37.0639 10.197 37.0129 10.476 37.0129 10.77V11.274H38.2009V10.878C38.2009 10.512 38.3029 10.227 38.5069 10.023C38.7109 9.81298 38.9839 9.70797 39.3259 9.70797C39.6499 9.70797 39.9019 9.79198 40.0819 9.95998C40.2679 10.128 40.3609 10.338 40.3609 10.59C40.3609 10.722 40.3429 10.842 40.3069 10.95C40.2769 11.052 40.2169 11.148 40.1269 11.238C40.0369 11.322 39.9139 11.4 39.7579 11.472C39.6079 11.538 39.4129 11.598 39.1729 11.652C38.8489 11.724 38.5579 11.814 38.2999 11.922C38.0419 12.024 37.8199 12.156 37.6339 12.318C37.4539 12.48 37.3129 12.678 37.2109 12.912C37.1149 13.146 37.0669 13.428 37.0669 13.758V15H41.4949Z" fill="white"/>
<path fill-rule="evenodd" clip-rule="evenodd" d="M14 24C14 22.3431 12.6569 21 11 21H8C6.34315 21 5 22.3431 5 24V30C5 31.6569 6.34315 33 8 33H11C12.6569 33 14 31.6569 14 30V24ZM9.246 24.294V28.866H7.464V30H12V28.866H10.434V23.7H8.112L7.356 26.346V26.454H8.49L9.084 24.294H9.246Z" fill="white"/>
<path fill-rule="evenodd" clip-rule="evenodd" d="M35 24C35 22.3431 33.6569 21 32 21H29C27.3431 21 26 22.3431 26 24V30C26 31.6569 27.3431 33 29 33H32C33.6569 33 35 31.6569 35 30V24ZM30.021 28.851C29.871 28.695 29.796 28.512 29.796 28.302H28.608C28.608 28.602 28.662 28.869 28.77 29.103C28.884 29.337 29.037 29.538 29.229 29.706C29.427 29.868 29.658 29.994 29.922 30.084C30.186 30.168 30.471 30.21 30.777 30.21C31.089 30.21 31.377 30.162 31.641 30.066C31.911 29.964 32.145 29.82 32.343 29.634C32.541 29.448 32.697 29.22 32.811 28.95C32.925 28.68 32.982 28.374 32.982 28.032V25.737C32.982 25.431 32.925 25.152 32.811 24.9C32.697 24.642 32.541 24.423 32.343 24.243C32.145 24.057 31.908 23.913 31.632 23.811C31.362 23.709 31.071 23.658 30.759 23.658C30.417 23.658 30.105 23.712 29.823 23.82C29.547 23.928 29.31 24.078 29.112 24.27C28.92 24.456 28.77 24.681 28.662 24.945C28.554 25.203 28.5 25.482 28.5 25.782V25.89C28.5 26.196 28.548 26.475 28.644 26.727C28.74 26.979 28.872 27.195 29.04 27.375C29.214 27.555 29.415 27.696 29.643 27.798C29.877 27.894 30.129 27.942 30.399 27.942C30.753 27.942 31.026 27.879 31.218 27.753C31.41 27.621 31.548 27.45 31.632 27.24H31.794V28.05C31.794 28.356 31.698 28.605 31.506 28.797C31.32 28.983 31.065 29.076 30.741 29.076C30.417 29.076 30.177 29.001 30.021 28.851ZM30.741 24.792C30.435 24.792 30.183 24.885 29.985 25.071C29.787 25.251 29.688 25.494 29.688 25.8C29.688 26.106 29.787 26.352 29.985 26.538C30.183 26.718 30.435 26.808 30.741 26.808C31.047 26.808 31.299 26.718 31.497 26.538C31.695 26.352 31.794 26.106 31.794 25.8C31.794 25.494 31.695 25.251 31.497 25.071C31.299 24.885 31.047 24.792 30.741 24.792Z" fill="white"/>
<path fill-rule="evenodd" clip-rule="evenodd" d="M45.5 24C45.5 22.3431 44.1569 21 42.5 21H39.5C37.8431 21 36.5 22.3431 36.5 24V30C36.5 31.6569 37.8431 33 39.5 33H42.5C44.1569 33 45.5 31.6569 45.5 30V24ZM43.446 30.084V28.95H40.206V28.842C40.206 28.716 40.224 28.605 40.26 28.509C40.302 28.407 40.374 28.314 40.476 28.23C40.578 28.146 40.719 28.071 40.899 28.005C41.085 27.933 41.319 27.864 41.601 27.798C42.273 27.642 42.756 27.39 43.05 27.042C43.35 26.694 43.5 26.256 43.5 25.728V25.62C43.5 25.368 43.452 25.125 43.356 24.891C43.266 24.651 43.125 24.441 42.933 24.261C42.747 24.081 42.513 23.937 42.231 23.829C41.949 23.715 41.619 23.658 41.241 23.658C40.887 23.658 40.569 23.718 40.287 23.838C40.005 23.952 39.765 24.111 39.567 24.315C39.375 24.513 39.225 24.747 39.117 25.017C39.015 25.281 38.964 25.56 38.964 25.854V26.358H40.152V25.962C40.152 25.596 40.254 25.311 40.458 25.107C40.662 24.897 40.935 24.792 41.277 24.792C41.601 24.792 41.853 24.876 42.033 25.044C42.219 25.212 42.312 25.422 42.312 25.674C42.312 25.806 42.294 25.926 42.258 26.034C42.228 26.136 42.168 26.232 42.078 26.322C41.988 26.406 41.865 26.484 41.709 26.556C41.559 26.622 41.364 26.682 41.124 26.736C40.8 26.808 40.509 26.898 40.251 27.006C39.993 27.108 39.771 27.24 39.585 27.402C39.405 27.564 39.264 27.762 39.162 27.996C39.066 28.23 39.018 28.512 39.018 28.842V30.084H43.446Z" fill="white"/>
<path fill-rule="evenodd" clip-rule="evenodd" d="M24.5 24C24.5 22.3431 23.1569 21 21.5 21H18.5C16.8431 21 15.5 22.3431 15.5 24V30C15.5 31.6569 16.8431 33 18.5 33H21.5C23.1569 33 24.5 31.6569 24.5 30V24ZM22.428 23.856H18V24.99H21.348V25.152L18.999 28.59C18.903 28.734 18.822 28.86 18.756 28.968C18.69 29.076 18.636 29.178 18.594 29.274C18.558 29.37 18.531 29.466 18.513 29.562C18.495 29.658 18.486 29.766 18.486 29.886V30.156H19.764V29.94C19.764 29.778 19.797 29.634 19.863 29.508C19.935 29.376 20.031 29.22 20.151 29.04L22.428 25.71V23.856Z" fill="white"/>
<path d="M9.39839 41.866V37.294H9.23639L8.64239 39.454H7.50839V39.346L8.26439 36.7H10.5864V41.866H12.1524V43H7.61639V41.866H9.39839Z" fill="white"/>
<path d="M22.5169 41.866V43H18.0889V41.758C18.0889 41.428 18.1369 41.146 18.2329 40.912C18.3349 40.678 18.4759 40.48 18.6559 40.318C18.8419 40.156 19.0639 40.024 19.3219 39.922C19.5799 39.814 19.8709 39.724 20.1949 39.652C20.4349 39.598 20.6299 39.538 20.7799 39.472C20.9359 39.4 21.0589 39.322 21.1489 39.238C21.2389 39.148 21.2989 39.052 21.3289 38.95C21.3649 38.842 21.3829 38.722 21.3829 38.59C21.3829 38.338 21.2899 38.128 21.1039 37.96C20.9239 37.792 20.6719 37.708 20.3479 37.708C20.0059 37.708 19.7329 37.813 19.5289 38.023C19.3249 38.227 19.2229 38.512 19.2229 38.878V39.274H18.0349V38.77C18.0349 38.476 18.0859 38.197 18.1879 37.933C18.2959 37.663 18.4459 37.429 18.6379 37.231C18.8359 37.027 19.0759 36.868 19.3579 36.754C19.6399 36.634 19.9579 36.574 20.3119 36.574C20.6899 36.574 21.0199 36.631 21.3019 36.745C21.5839 36.853 21.8179 36.997 22.0039 37.177C22.1959 37.357 22.3369 37.567 22.4269 37.807C22.5229 38.041 22.5709 38.284 22.5709 38.536V38.644C22.5709 39.172 22.4209 39.61 22.1209 39.958C21.8269 40.306 21.3439 40.558 20.6719 40.714C20.3899 40.78 20.1559 40.849 19.9699 40.921C19.7899 40.987 19.6489 41.062 19.5469 41.146C19.4449 41.23 19.3729 41.323 19.3309 41.425C19.2949 41.521 19.2769 41.632 19.2769 41.758V41.866H22.5169Z" fill="white"/>
<path d="M28.5254 36.7H32.9534V38.554L30.6764 41.884C30.5564 42.064 30.4604 42.22 30.3884 42.352C30.3224 42.478 30.2894 42.622 30.2894 42.784V43H29.0114V42.73C29.0114 42.61 29.0204 42.502 29.0384 42.406C29.0564 42.31 29.0834 42.214 29.1194 42.118C29.1614 42.022 29.2154 41.92 29.2814 41.812C29.3474 41.704 29.4284 41.578 29.5244 41.434L31.8734 37.996V37.834H28.5254V36.7Z" fill="white"/>
<path d="M40.2758 41.218C40.2758 41.428 40.3508 41.611 40.5008 41.767C40.6568 41.917 40.8968 41.992 41.2208 41.992C41.5448 41.992 41.7998 41.899 41.9858 41.713C42.1778 41.521 42.2738 41.272 42.2738 40.966V40.156H42.1118C42.0278 40.366 41.8898 40.537 41.6978 40.669C41.5058 40.795 41.2328 40.858 40.8788 40.858C40.6088 40.858 40.3568 40.81 40.1228 40.714C39.8948 40.612 39.6938 40.471 39.5198 40.291C39.3518 40.111 39.2198 39.895 39.1238 39.643C39.0278 39.391 38.9798 39.112 38.9798 38.806V38.698C38.9798 38.398 39.0338 38.119 39.1418 37.861C39.2498 37.597 39.3998 37.372 39.5918 37.186C39.7898 36.994 40.0268 36.844 40.3028 36.736C40.5848 36.628 40.8968 36.574 41.2388 36.574C41.5508 36.574 41.8418 36.625 42.1118 36.727C42.3878 36.829 42.6248 36.973 42.8228 37.159C43.0208 37.339 43.1768 37.558 43.2908 37.816C43.4048 38.068 43.4618 38.347 43.4618 38.653V40.948C43.4618 41.29 43.4048 41.596 43.2908 41.866C43.1768 42.136 43.0208 42.364 42.8228 42.55C42.6248 42.736 42.3908 42.88 42.1208 42.982C41.8568 43.078 41.5688 43.126 41.2568 43.126C40.9508 43.126 40.6658 43.084 40.4018 43C40.1378 42.91 39.9068 42.784 39.7088 42.622C39.5168 42.454 39.3638 42.253 39.2498 42.019C39.1418 41.785 39.0878 41.518 39.0878 41.218H40.2758ZM41.2208 37.708C40.9148 37.708 40.6628 37.801 40.4648 37.987C40.2668 38.167 40.1678 38.41 40.1678 38.716C40.1678 39.022 40.2668 39.268 40.4648 39.454C40.6628 39.634 40.9148 39.724 41.2208 39.724C41.5268 39.724 41.7788 39.634 41.9768 39.454C42.1748 39.268 42.2738 39.022 42.2738 38.716C42.2738 38.41 42.1748 38.167 41.9768 37.987C41.7788 37.801 41.5268 37.708 41.2208 37.708Z" fill="white"/>
</svg>
